<svg aria-roledescription="er" role="graphics-document document" viewBox="0 0 160.0078125 175" style="max-width: 160.008px; background-color: white;" xmlns:xlink="http://www.w3.org/1999/xlink" xmlns="http://www.w3.org/2000/svg" width="100%" id="my-svg"><style>#my-svg{font-family:"trebuchet ms",verdana,arial,sans-serif;font-size:16px;fill:#333;}#my-svg .error-icon{fill:#552222;}#my-svg .error-text{fill:#552222;stroke:#552222;}#my-svg .edge-thickness-normal{stroke-width:2px;}#my-svg .edge-thickness-thick{stroke-width:3.5px;}#my-svg .edge-pattern-solid{stroke-dasharray:0;}#my-svg .edge-pattern-dashed{stroke-dasharray:3;}#my-svg .edge-pattern-dotted{stroke-dasharray:2;}#my-svg .marker{fill:#333333;stroke:#333333;}#my-svg .marker.cross{stroke:#333333;}#my-svg svg{font-family:"trebuchet ms",verdana,arial,sans-serif;font-size:16px;}#my-svg .entityBox{fill:#ECECFF;stroke:#9370DB;}#my-svg .attributeBoxOdd{fill:#ffffff;stroke:#9370DB;}#my-svg .attributeBoxEven{fill:#f2f2f2;stroke:#9370DB;}#my-svg .relationshipLabelBox{fill:hsl(80, 100%, 96.2745098039%);opacity:0.7;background-color:hsl(80, 100%, 96.2745098039%);}#my-svg .relationshipLabelBox rect{opacity:0.5;}#my-svg .relationshipLine{stroke:#333333;}#my-svg .entityTitleText{text-anchor:middle;font-size:18px;fill:#333;}#my-svg #MD_PARENT_START{fill:#f5f5f5!important;stroke:#333333!important;stroke-width:1;}#my-svg #MD_PARENT_END{fill:#f5f5f5!important;stroke:#333333!important;stroke-width:1;}#my-svg :root{--mermaid-font-family:"trebuchet ms",verdana,arial,sans-serif;}</style><g/><defs><marker orient="auto" markerHeight="240" markerWidth="190" refY="7" refX="0" id="MD_PARENT_START"><path d="M 18,7 L9,13 L1,7 L9,1 Z"/></marker></defs><defs><marker orient="auto" markerHeight="28" markerWidth="20" refY="7" refX="19" id="MD_PARENT_END"><path d="M 18,7 L9,13 L1,7 L9,1 Z"/></marker></defs><defs><marker orient="auto" markerHeight="18" markerWidth="18" refY="9" refX="0" id="ONLY_ONE_START"><path d="M9,0 L9,18 M15,0 L15,18" fill="none" stroke="gray"/></marker></defs><defs><marker orient="auto" markerHeight="18" markerWidth="18" refY="9" refX="18" id="ONLY_ONE_END"><path d="M3,0 L3,18 M9,0 L9,18" fill="none" stroke="gray"/></marker></defs><defs><marker orient="auto" markerHeight="18" markerWidth="30" refY="9" refX="0" id="ZERO_OR_ONE_START"><circle r="6" cy="9" cx="21" fill="white" stroke="gray"/><path d="M9,0 L9,18" fill="none" stroke="gray"/></marker></defs><defs><marker orient="auto" markerHeight="18" markerWidth="30" refY="9" refX="30" id="ZERO_OR_ONE_END"><circle r="6" cy="9" cx="9" fill="white" stroke="gray"/><path d="M21,0 L21,18" fill="none" stroke="gray"/></marker></defs><defs><marker orient="auto" markerHeight="36" markerWidth="45" refY="18" refX="18" id="ONE_OR_MORE_START"><path d="M0,18 Q 18,0 36,18 Q 18,36 0,18 M42,9 L42,27" fill="none" stroke="gray"/></marker></defs><defs><marker orient="auto" markerHeight="36" markerWidth="45" refY="18" refX="27" id="ONE_OR_MORE_END"><path d="M3,9 L3,27 M9,18 Q27,0 45,18 Q27,36 9,18" fill="none" stroke="gray"/></marker></defs><defs><marker orient="auto" markerHeight="36" markerWidth="57" refY="18" refX="18" id="ZERO_OR_MORE_START"><circle r="6" cy="18" cx="48" fill="white" stroke="gray"/><path d="M0,18 Q18,0 36,18 Q18,36 0,18" fill="none" stroke="gray"/></marker></defs><defs><marker orient="auto" markerHeight="36" markerWidth="57" refY="18" refX="39" id="ZERO_OR_MORE_END"><circle r="6" cy="18" cx="9" fill="white" stroke="gray"/><path d="M21,18 Q39,0 57,18 Q39,36 21,18" fill="none" stroke="gray"/></marker></defs><g transform="translate(20,20 )" id="entity-Tool-fedbab6b-df0d-5d10-b51a-09004f956d1e"><rect height="135" width="120.0078125" y="0" x="0" class="er entityBox"/><text style="dominant-baseline: middle; text-anchor: middle; font-size: 12px;" transform="translate(60.00390625,12)" y="0" x="0" id="text-entity-Tool-fedbab6b-df0d-5d10-b51a-09004f956d1e" class="er entityLabel">Tool</text><rect height="22.5" width="36.5234375" y="24" x="0" class="er attributeBoxOdd"/><text style="dominant-baseline: middle; font-size: 10.2px;" transform="translate(5,35.25)" y="0" x="0" id="text-entity-Tool-fedbab6b-df0d-5d10-b51a-09004f956d1e-attr-1-type" class="er entityLabel">Int</text><rect height="22.5" width="60.984375" y="24" x="36.5234375" class="er attributeBoxOdd"/><text style="dominant-baseline: middle; font-size: 10.2px;" transform="translate(41.5234375,35.25)" y="0" x="0" id="text-entity-Tool-fedbab6b-df0d-5d10-b51a-09004f956d1e-attr-1-name" class="er entityLabel">id</text><rect height="22.5" width="22.5" y="24" x="97.5078125" class="er attributeBoxOdd"/><text style="dominant-baseline: middle; font-size: 10.2px;" transform="translate(102.5078125,35.25)" y="0" x="0" id="text-entity-Tool-fedbab6b-df0d-5d10-b51a-09004f956d1e-attr-1-comment" class="er entityLabel">🗝️</text><rect height="22" width="36.5234375" y="46.5" x="0" class="er attributeBoxEven"/><text style="dominant-baseline: middle; font-size: 10.2px;" transform="translate(5,57.5)" y="0" x="0" id="text-entity-Tool-fedbab6b-df0d-5d10-b51a-09004f956d1e-attr-2-type" class="er entityLabel">String</text><rect height="22" width="60.984375" y="46.5" x="36.5234375" class="er attributeBoxEven"/><text style="dominant-baseline: middle; font-size: 10.2px;" transform="translate(41.5234375,57.5)" y="0" x="0" id="text-entity-Tool-fedbab6b-df0d-5d10-b51a-09004f956d1e-attr-2-name" class="er entityLabel">name</text><rect height="22" width="22.5" y="46.5" x="97.5078125" class="er attributeBoxEven"/><text style="dominant-baseline: middle; font-size: 10.2px;" transform="translate(102.5078125,57.5)" y="0" x="0" id="text-entity-Tool-fedbab6b-df0d-5d10-b51a-09004f956d1e-attr-2-comment" class="er entityLabel"/><rect height="22" width="36.5234375" y="68.5" x="0" class="er attributeBoxOdd"/><text style="dominant-baseline: middle; font-size: 10.2px;" transform="translate(5,79.5)" y="0" x="0" id="text-entity-Tool-fedbab6b-df0d-5d10-b51a-09004f956d1e-attr-3-type" class="er entityLabel">String</text><rect height="22" width="60.984375" y="68.5" x="36.5234375" class="er attributeBoxOdd"/><text style="dominant-baseline: middle; font-size: 10.2px;" transform="translate(41.5234375,79.5)" y="0" x="0" id="text-entity-Tool-fedbab6b-df0d-5d10-b51a-09004f956d1e-attr-3-name" class="er entityLabel">description</text><rect height="22" width="22.5" y="68.5" x="97.5078125" class="er attributeBoxOdd"/><text style="dominant-baseline: middle; font-size: 10.2px;" transform="translate(102.5078125,79.5)" y="0" x="0" id="text-entity-Tool-fedbab6b-df0d-5d10-b51a-09004f956d1e-attr-3-comment" class="er entityLabel"/><rect height="22" width="36.5234375" y="90.5" x="0" class="er attributeBoxEven"/><text style="dominant-baseline: middle; font-size: 10.2px;" transform="translate(5,101.5)" y="0" x="0" id="text-entity-Tool-fedbab6b-df0d-5d10-b51a-09004f956d1e-attr-4-type" class="er entityLabel">String</text><rect height="22" width="60.984375" y="90.5" x="36.5234375" class="er attributeBoxEven"/><text style="dominant-baseline: middle; font-size: 10.2px;" transform="translate(41.5234375,101.5)" y="0" x="0" id="text-entity-Tool-fedbab6b-df0d-5d10-b51a-09004f956d1e-attr-4-name" class="er entityLabel">link</text><rect height="22" width="22.5" y="90.5" x="97.5078125" class="er attributeBoxEven"/><text style="dominant-baseline: middle; font-size: 10.2px;" transform="translate(102.5078125,101.5)" y="0" x="0" id="text-entity-Tool-fedbab6b-df0d-5d10-b51a-09004f956d1e-attr-4-comment" class="er entityLabel"/><rect height="22.5" width="36.5234375" y="112.5" x="0" class="er attributeBoxOdd"/><text style="dominant-baseline: middle; font-size: 10.2px;" transform="translate(5,123.75)" y="0" x="0" id="text-entity-Tool-fedbab6b-df0d-5d10-b51a-09004f956d1e-attr-5-type" class="er entityLabel">String</text><rect height="22.5" width="60.984375" y="112.5" x="36.5234375" class="er attributeBoxOdd"/><text style="dominant-baseline: middle; font-size: 10.2px;" transform="translate(41.5234375,123.75)" y="0" x="0" id="text-entity-Tool-fedbab6b-df0d-5d10-b51a-09004f956d1e-attr-5-name" class="er entityLabel">image</text><rect height="22.5" width="22.5" y="112.5" x="97.5078125" class="er attributeBoxOdd"/><text style="dominant-baseline: middle; font-size: 10.2px;" transform="translate(102.5078125,123.75)" y="0" x="0" id="text-entity-Tool-fedbab6b-df0d-5d10-b51a-09004f956d1e-attr-5-comment" class="er entityLabel">❓</text></g></svg>