<svg id="Layer_1" data-name="Layer 1" xmlns="http://www.w3.org/2000/svg" viewBox="0 0 800 800"><defs><style>.cls-1{fill:#02101a;}.cls-2{fill:#fff;}</style></defs><rect class="cls-1" width="800" height="800"/><path class="cls-2" d="M641.4,555.6a54,54,0,0,0-71.2,27.3,30.26,30.26,0,0,0-1.2,3.2H160L387.6,191.8,557.7,484.6l32.4-18.8L387.5,117,95,623.6H569a53.76,53.76,0,0,0,28.6,30.5,52.87,52.87,0,0,0,21.8,4.7,53.94,53.94,0,0,0,22-103.2Zm1.6,59.8a25.76,25.76,0,1,1-23.5-36.2,25.24,25.24,0,0,1,10.4,2.2A25.64,25.64,0,0,1,643,615.4Z"/><path class="cls-2" d="M379,549.9H351.4V533.2c-7.4,13.5-22.8,20.2-39,20.2-37.1,0-58.9-28.9-58.9-61.6,0-36.5,26.4-61.4,58.9-61.4,21.1,0,34,11.2,39,20.5V434H379Zm-97.8-57.4c0,14.3,10.3,35.2,35.2,35.2,15.4,0,25.5-8,30.8-18.6a40,40,0,0,0,4.4-16.2,34.83,34.83,0,0,0-3.2-16.2c-4.9-11-15.6-20.5-32.3-20.5-22.4,0-35,18.1-35,36.1v.2Zm155-3.6-39-54.8h33.3l22.6,35.6,22.6-35.6h32.9l-38.8,54.8,43.2,61H479L453.1,510l-26.2,39.9H393.4l42.8-61Z"/></svg>